<mxfile host="Electron" modified="2023-04-21T21:00:51.972Z" agent="Mozilla/5.0 (Windows NT 10.0; Win64; x64) AppleWebKit/537.36 (KHTML, like Gecko) draw.io/21.1.2 Chrome/106.0.5249.199 Electron/21.4.3 Safari/537.36" etag="JLyu-FvVAAig74fnoJsP" version="21.1.2" type="device">
  <diagram name="Page-1" id="7e0a89b8-554c-2b80-1dc8-d5c74ca68de4">
    <mxGraphModel dx="1511" dy="333" grid="1" gridSize="10" guides="1" tooltips="1" connect="1" arrows="1" fold="1" page="1" pageScale="1" pageWidth="1100" pageHeight="850" background="none" math="0" shadow="0">
      <root>
        <mxCell id="0" />
        <mxCell id="1" parent="0" />
        <mxCell id="jnu6qfAyHBBNwqPHd9JJ-6" style="edgeStyle=orthogonalEdgeStyle;rounded=0;orthogonalLoop=1;jettySize=auto;html=1;exitX=1;exitY=1;exitDx=0;exitDy=0;exitPerimeter=0;entryX=0;entryY=0.5;entryDx=0;entryDy=0;entryPerimeter=0;endArrow=none;endFill=0;" edge="1" parent="1" source="jnu6qfAyHBBNwqPHd9JJ-1" target="jnu6qfAyHBBNwqPHd9JJ-5">
          <mxGeometry relative="1" as="geometry" />
        </mxCell>
        <mxCell id="jnu6qfAyHBBNwqPHd9JJ-1" value="" style="verticalLabelPosition=bottom;shadow=0;dashed=0;align=center;html=1;verticalAlign=top;shape=mxgraph.electrical.transistors.npn_transistor_5;" vertex="1" parent="1">
          <mxGeometry x="438" y="1453.7" width="64" height="100" as="geometry" />
        </mxCell>
        <mxCell id="jnu6qfAyHBBNwqPHd9JJ-11" style="edgeStyle=orthogonalEdgeStyle;rounded=0;orthogonalLoop=1;jettySize=auto;html=1;exitX=1;exitY=0;exitDx=0;exitDy=0;exitPerimeter=0;endArrow=none;endFill=0;" edge="1" parent="1" source="jnu6qfAyHBBNwqPHd9JJ-2">
          <mxGeometry relative="1" as="geometry">
            <mxPoint x="603.5714285714287" y="1433.7" as="targetPoint" />
          </mxGeometry>
        </mxCell>
        <mxCell id="jnu6qfAyHBBNwqPHd9JJ-14" style="edgeStyle=orthogonalEdgeStyle;rounded=0;orthogonalLoop=1;jettySize=auto;html=1;exitX=0;exitY=0.5;exitDx=0;exitDy=0;exitPerimeter=0;endArrow=none;endFill=0;" edge="1" parent="1" source="jnu6qfAyHBBNwqPHd9JJ-2">
          <mxGeometry relative="1" as="geometry">
            <mxPoint x="500" y="1563.8428571428572" as="targetPoint" />
          </mxGeometry>
        </mxCell>
        <mxCell id="jnu6qfAyHBBNwqPHd9JJ-23" style="edgeStyle=orthogonalEdgeStyle;rounded=0;orthogonalLoop=1;jettySize=auto;html=1;exitDx=0;exitDy=0;exitPerimeter=0;entryX=1;entryY=0.5;entryDx=0;entryDy=0;entryPerimeter=0;endArrow=none;endFill=0;" edge="1" parent="1" source="jnu6qfAyHBBNwqPHd9JJ-24" target="jnu6qfAyHBBNwqPHd9JJ-5">
          <mxGeometry relative="1" as="geometry">
            <Array as="points" />
          </mxGeometry>
        </mxCell>
        <mxCell id="jnu6qfAyHBBNwqPHd9JJ-2" value="" style="verticalLabelPosition=bottom;shadow=0;dashed=0;align=center;html=1;verticalAlign=top;shape=mxgraph.electrical.transistors.npn_transistor_5;" vertex="1" parent="1">
          <mxGeometry x="540" y="1513.7" width="64" height="100" as="geometry" />
        </mxCell>
        <mxCell id="jnu6qfAyHBBNwqPHd9JJ-10" style="edgeStyle=orthogonalEdgeStyle;rounded=0;orthogonalLoop=1;jettySize=auto;html=1;exitDx=0;exitDy=0;exitPerimeter=0;entryX=1;entryY=0;entryDx=0;entryDy=0;entryPerimeter=0;endArrow=none;endFill=0;" edge="1" parent="1" source="jnu6qfAyHBBNwqPHd9JJ-19" target="jnu6qfAyHBBNwqPHd9JJ-1">
          <mxGeometry relative="1" as="geometry" />
        </mxCell>
        <mxCell id="jnu6qfAyHBBNwqPHd9JJ-26" style="edgeStyle=orthogonalEdgeStyle;rounded=0;orthogonalLoop=1;jettySize=auto;html=1;exitX=0;exitY=0.5;exitDx=0;exitDy=0;exitPerimeter=0;endArrow=none;endFill=0;" edge="1" parent="1" source="jnu6qfAyHBBNwqPHd9JJ-3" target="jnu6qfAyHBBNwqPHd9JJ-24">
          <mxGeometry relative="1" as="geometry">
            <Array as="points">
              <mxPoint x="660" y="1623.7" />
            </Array>
          </mxGeometry>
        </mxCell>
        <mxCell id="jnu6qfAyHBBNwqPHd9JJ-27" style="edgeStyle=orthogonalEdgeStyle;rounded=0;orthogonalLoop=1;jettySize=auto;html=1;exitX=1;exitY=0.5;exitDx=0;exitDy=0;exitPerimeter=0;endArrow=none;endFill=0;" edge="1" parent="1" source="jnu6qfAyHBBNwqPHd9JJ-3" target="jnu6qfAyHBBNwqPHd9JJ-19">
          <mxGeometry relative="1" as="geometry">
            <Array as="points">
              <mxPoint x="660" y="1433.7" />
            </Array>
          </mxGeometry>
        </mxCell>
        <mxCell id="jnu6qfAyHBBNwqPHd9JJ-3" value="" style="pointerEvents=1;fillColor=strokeColor;verticalLabelPosition=bottom;shadow=0;dashed=0;align=center;html=1;verticalAlign=top;shape=mxgraph.electrical.diodes.diode;rotation=-90;" vertex="1" parent="1">
          <mxGeometry x="630" y="1503.7" width="60" height="30" as="geometry" />
        </mxCell>
        <mxCell id="jnu6qfAyHBBNwqPHd9JJ-7" style="edgeStyle=orthogonalEdgeStyle;rounded=0;orthogonalLoop=1;jettySize=auto;html=1;exitDx=0;exitDy=0;exitPerimeter=0;endArrow=none;endFill=0;" edge="1" parent="1" source="jnu6qfAyHBBNwqPHd9JJ-8">
          <mxGeometry relative="1" as="geometry">
            <mxPoint x="500" y="1623.509523809524" as="targetPoint" />
          </mxGeometry>
        </mxCell>
        <mxCell id="jnu6qfAyHBBNwqPHd9JJ-15" style="edgeStyle=orthogonalEdgeStyle;rounded=0;orthogonalLoop=1;jettySize=auto;html=1;exitX=0;exitY=0.5;exitDx=0;exitDy=0;exitPerimeter=0;entryX=0;entryY=0.5;entryDx=0;entryDy=0;entryPerimeter=0;endArrow=none;endFill=0;" edge="1" parent="1" source="jnu6qfAyHBBNwqPHd9JJ-4" target="jnu6qfAyHBBNwqPHd9JJ-1">
          <mxGeometry relative="1" as="geometry" />
        </mxCell>
        <mxCell id="jnu6qfAyHBBNwqPHd9JJ-4" value="10 k&lt;b&gt;Ω&lt;/b&gt;" style="verticalLabelPosition=bottom;shadow=0;dashed=0;align=center;html=1;verticalAlign=top;strokeWidth=1;shape=mxgraph.electrical.resistors.resistor_2;rounded=1;comic=0;labelBackgroundColor=none;fontFamily=Verdana;fontSize=12" vertex="1" parent="1">
          <mxGeometry x="430" y="1613.7" width="58" height="20" as="geometry" />
        </mxCell>
        <mxCell id="jnu6qfAyHBBNwqPHd9JJ-5" value="150&amp;nbsp;&lt;b&gt;Ω&lt;/b&gt;" style="verticalLabelPosition=bottom;shadow=0;dashed=0;align=center;html=1;verticalAlign=top;strokeWidth=1;shape=mxgraph.electrical.resistors.resistor_2;rounded=1;comic=0;labelBackgroundColor=none;fontFamily=Verdana;fontSize=12" vertex="1" parent="1">
          <mxGeometry x="523" y="1613.7" width="58" height="20" as="geometry" />
        </mxCell>
        <mxCell id="jnu6qfAyHBBNwqPHd9JJ-9" value="" style="edgeStyle=orthogonalEdgeStyle;rounded=0;orthogonalLoop=1;jettySize=auto;html=1;exitX=1;exitY=0.5;exitDx=0;exitDy=0;exitPerimeter=0;endArrow=none;endFill=0;" edge="1" parent="1" source="jnu6qfAyHBBNwqPHd9JJ-4" target="jnu6qfAyHBBNwqPHd9JJ-8">
          <mxGeometry relative="1" as="geometry">
            <mxPoint x="500" y="1623.509523809524" as="targetPoint" />
            <mxPoint x="488" y="1623.7" as="sourcePoint" />
          </mxGeometry>
        </mxCell>
        <mxCell id="jnu6qfAyHBBNwqPHd9JJ-8" value="" style="shape=waypoint;sketch=0;fillStyle=solid;size=6;pointerEvents=1;points=[];fillColor=none;resizable=0;rotatable=0;perimeter=centerPerimeter;snapToPoint=1;verticalAlign=top;spacingBottom=0;spacingTop=-5;fontFamily=Verdana;fontSize=12;" vertex="1" parent="1">
          <mxGeometry x="483" y="1603.7" width="40" height="40" as="geometry" />
        </mxCell>
        <mxCell id="jnu6qfAyHBBNwqPHd9JJ-19" value="" style="shape=waypoint;sketch=0;fillStyle=solid;size=6;pointerEvents=1;points=[];fillColor=none;resizable=0;rotatable=0;perimeter=centerPerimeter;snapToPoint=1;verticalAlign=top;spacingBottom=0;spacingTop=-5;fontFamily=Verdana;fontSize=12;" vertex="1" parent="1">
          <mxGeometry x="582" y="1413.7" width="40" height="40" as="geometry" />
        </mxCell>
        <mxCell id="jnu6qfAyHBBNwqPHd9JJ-21" value="" style="shape=waypoint;sketch=0;fillStyle=solid;size=6;pointerEvents=1;points=[];fillColor=none;resizable=0;rotatable=0;perimeter=centerPerimeter;snapToPoint=1;verticalAlign=top;spacingBottom=0;spacingTop=-5;fontFamily=Verdana;fontSize=12;" vertex="1" parent="1">
          <mxGeometry x="390" y="1483.7" width="40" height="40" as="geometry" />
        </mxCell>
        <mxCell id="jnu6qfAyHBBNwqPHd9JJ-22" value="" style="shape=waypoint;sketch=0;fillStyle=solid;size=6;pointerEvents=1;points=[];fillColor=none;resizable=0;rotatable=0;perimeter=centerPerimeter;snapToPoint=1;verticalAlign=top;spacingBottom=0;spacingTop=-5;fontFamily=Verdana;fontSize=12;" vertex="1" parent="1">
          <mxGeometry x="483" y="1543.7" width="40" height="40" as="geometry" />
        </mxCell>
        <mxCell id="jnu6qfAyHBBNwqPHd9JJ-25" value="" style="edgeStyle=orthogonalEdgeStyle;rounded=0;orthogonalLoop=1;jettySize=auto;html=1;exitX=1;exitY=1;exitDx=0;exitDy=0;exitPerimeter=0;entryDx=0;entryDy=0;entryPerimeter=0;endArrow=none;endFill=0;" edge="1" parent="1" source="jnu6qfAyHBBNwqPHd9JJ-2" target="jnu6qfAyHBBNwqPHd9JJ-24">
          <mxGeometry relative="1" as="geometry">
            <mxPoint x="604" y="1613.7" as="sourcePoint" />
            <mxPoint x="581" y="1623.7" as="targetPoint" />
            <Array as="points">
              <mxPoint x="604" y="1623.7" />
            </Array>
          </mxGeometry>
        </mxCell>
        <mxCell id="jnu6qfAyHBBNwqPHd9JJ-24" value="" style="shape=waypoint;sketch=0;fillStyle=solid;size=6;pointerEvents=1;points=[];fillColor=none;resizable=0;rotatable=0;perimeter=centerPerimeter;snapToPoint=1;verticalAlign=top;spacingBottom=0;spacingTop=-5;fontFamily=Verdana;fontSize=12;" vertex="1" parent="1">
          <mxGeometry x="582" y="1603.7" width="40" height="40" as="geometry" />
        </mxCell>
        <mxCell id="jnu6qfAyHBBNwqPHd9JJ-28" value="" style="endArrow=none;html=1;rounded=0;entryX=0.517;entryY=0.567;entryDx=0;entryDy=0;entryPerimeter=0;" edge="1" parent="1" target="jnu6qfAyHBBNwqPHd9JJ-24">
          <mxGeometry width="50" height="50" relative="1" as="geometry">
            <mxPoint x="602" y="1683.7" as="sourcePoint" />
            <mxPoint x="620" y="1673.7" as="targetPoint" />
          </mxGeometry>
        </mxCell>
        <mxCell id="jnu6qfAyHBBNwqPHd9JJ-29" value="" style="endArrow=none;html=1;rounded=0;entryX=0.517;entryY=0.567;entryDx=0;entryDy=0;entryPerimeter=0;" edge="1" parent="1">
          <mxGeometry width="50" height="50" relative="1" as="geometry">
            <mxPoint x="602" y="1433.7" as="sourcePoint" />
            <mxPoint x="602" y="1373.7" as="targetPoint" />
          </mxGeometry>
        </mxCell>
        <mxCell id="jnu6qfAyHBBNwqPHd9JJ-30" value="" style="endArrow=none;html=1;rounded=0;" edge="1" parent="1">
          <mxGeometry width="50" height="50" relative="1" as="geometry">
            <mxPoint x="410" y="1503.7" as="sourcePoint" />
            <mxPoint x="360" y="1503.7" as="targetPoint" />
          </mxGeometry>
        </mxCell>
        <mxCell id="jnu6qfAyHBBNwqPHd9JJ-33" style="edgeStyle=orthogonalEdgeStyle;rounded=0;orthogonalLoop=1;jettySize=auto;html=1;exitX=0.5;exitY=0;exitDx=0;exitDy=0;exitPerimeter=0;entryX=0.005;entryY=0.108;entryDx=0;entryDy=0;entryPerimeter=0;endArrow=none;endFill=0;" edge="1" parent="1" source="jnu6qfAyHBBNwqPHd9JJ-31" target="jnu6qfAyHBBNwqPHd9JJ-32">
          <mxGeometry relative="1" as="geometry" />
        </mxCell>
        <mxCell id="jnu6qfAyHBBNwqPHd9JJ-34" style="edgeStyle=orthogonalEdgeStyle;rounded=0;orthogonalLoop=1;jettySize=auto;html=1;exitX=0.5;exitY=1;exitDx=0;exitDy=0;exitPerimeter=0;entryX=0.002;entryY=0.886;entryDx=0;entryDy=0;entryPerimeter=0;endArrow=none;endFill=0;" edge="1" parent="1" source="jnu6qfAyHBBNwqPHd9JJ-31" target="jnu6qfAyHBBNwqPHd9JJ-32">
          <mxGeometry relative="1" as="geometry" />
        </mxCell>
        <mxCell id="jnu6qfAyHBBNwqPHd9JJ-31" value="" style="pointerEvents=1;verticalLabelPosition=bottom;shadow=0;dashed=0;align=center;html=1;verticalAlign=top;shape=mxgraph.electrical.signal_sources.source;aspect=fixed;points=[[0.5,0,0],[1,0.5,0],[0.5,1,0],[0,0.5,0]];elSignalType=ac;" vertex="1" parent="1">
          <mxGeometry x="24" y="970" width="60" height="60" as="geometry" />
        </mxCell>
        <mxCell id="jnu6qfAyHBBNwqPHd9JJ-32" value="AC to DC converter" style="rounded=0;whiteSpace=wrap;html=1;" vertex="1" parent="1">
          <mxGeometry x="163" y="935" width="160" height="130" as="geometry" />
        </mxCell>
        <mxCell id="jnu6qfAyHBBNwqPHd9JJ-36" style="edgeStyle=orthogonalEdgeStyle;rounded=0;orthogonalLoop=1;jettySize=auto;html=1;exitX=0.5;exitY=0;exitDx=0;exitDy=0;exitPerimeter=0;entryX=0.998;entryY=0.114;entryDx=0;entryDy=0;entryPerimeter=0;endArrow=none;endFill=0;" edge="1" parent="1" source="jnu6qfAyHBBNwqPHd9JJ-35" target="jnu6qfAyHBBNwqPHd9JJ-32">
          <mxGeometry relative="1" as="geometry">
            <Array as="points">
              <mxPoint x="390" y="950" />
              <mxPoint x="323" y="950" />
            </Array>
          </mxGeometry>
        </mxCell>
        <mxCell id="jnu6qfAyHBBNwqPHd9JJ-35" value="12V" style="verticalLabelPosition=top;verticalAlign=bottom;shape=mxgraph.electrical.signal_sources.vdd;shadow=0;dashed=0;align=center;strokeWidth=1;fontSize=24;html=1;flipV=1;" vertex="1" parent="1">
          <mxGeometry x="360" y="900" width="60" height="40" as="geometry" />
        </mxCell>
        <mxCell id="jnu6qfAyHBBNwqPHd9JJ-38" style="edgeStyle=orthogonalEdgeStyle;rounded=0;orthogonalLoop=1;jettySize=auto;html=1;exitDx=0;exitDy=0;exitPerimeter=0;entryX=1.002;entryY=0.886;entryDx=0;entryDy=0;entryPerimeter=0;endArrow=none;endFill=0;" edge="1" parent="1" source="jnu6qfAyHBBNwqPHd9JJ-44" target="jnu6qfAyHBBNwqPHd9JJ-32">
          <mxGeometry relative="1" as="geometry">
            <Array as="points">
              <mxPoint x="323" y="1050" />
            </Array>
          </mxGeometry>
        </mxCell>
        <mxCell id="jnu6qfAyHBBNwqPHd9JJ-37" value="" style="pointerEvents=1;verticalLabelPosition=bottom;shadow=0;dashed=0;align=center;html=1;verticalAlign=top;shape=mxgraph.electrical.signal_sources.protective_earth;" vertex="1" parent="1">
          <mxGeometry x="379.5" y="1070" width="25" height="20" as="geometry" />
        </mxCell>
        <mxCell id="jnu6qfAyHBBNwqPHd9JJ-40" value="Voltage Regulator 5V 1 A" style="rounded=0;whiteSpace=wrap;html=1;" vertex="1" parent="1">
          <mxGeometry x="462" y="935" width="160" height="130" as="geometry" />
        </mxCell>
        <mxCell id="jnu6qfAyHBBNwqPHd9JJ-41" value="" style="endArrow=none;html=1;rounded=0;entryX=-0.002;entryY=0.116;entryDx=0;entryDy=0;entryPerimeter=0;" edge="1" parent="1" target="jnu6qfAyHBBNwqPHd9JJ-40">
          <mxGeometry width="50" height="50" relative="1" as="geometry">
            <mxPoint x="390" y="950" as="sourcePoint" />
            <mxPoint x="447" y="920" as="targetPoint" />
          </mxGeometry>
        </mxCell>
        <mxCell id="jnu6qfAyHBBNwqPHd9JJ-43" value="" style="shape=waypoint;sketch=0;fillStyle=solid;size=6;pointerEvents=1;points=[];fillColor=none;resizable=0;rotatable=0;perimeter=centerPerimeter;snapToPoint=1;verticalAlign=top;spacingBottom=0;spacingTop=-5;fontFamily=Verdana;fontSize=12;" vertex="1" parent="1">
          <mxGeometry x="370" y="930" width="40" height="40" as="geometry" />
        </mxCell>
        <mxCell id="jnu6qfAyHBBNwqPHd9JJ-45" value="" style="edgeStyle=orthogonalEdgeStyle;rounded=0;orthogonalLoop=1;jettySize=auto;html=1;exitX=0.5;exitY=0;exitDx=0;exitDy=0;exitPerimeter=0;entryDx=0;entryDy=0;entryPerimeter=0;endArrow=none;endFill=0;" edge="1" parent="1" source="jnu6qfAyHBBNwqPHd9JJ-37" target="jnu6qfAyHBBNwqPHd9JJ-44">
          <mxGeometry relative="1" as="geometry">
            <mxPoint x="392" y="1070" as="sourcePoint" />
            <mxPoint x="324" y="1052" as="targetPoint" />
            <Array as="points">
              <mxPoint x="392" y="1052" />
            </Array>
          </mxGeometry>
        </mxCell>
        <mxCell id="jnu6qfAyHBBNwqPHd9JJ-44" value="" style="shape=waypoint;sketch=0;fillStyle=solid;size=6;pointerEvents=1;points=[];fillColor=none;resizable=0;rotatable=0;perimeter=centerPerimeter;snapToPoint=1;verticalAlign=top;spacingBottom=0;spacingTop=-5;fontFamily=Verdana;fontSize=12;" vertex="1" parent="1">
          <mxGeometry x="372" y="1030" width="40" height="40" as="geometry" />
        </mxCell>
        <mxCell id="jnu6qfAyHBBNwqPHd9JJ-46" value="" style="endArrow=none;html=1;rounded=0;entryX=-0.002;entryY=0.116;entryDx=0;entryDy=0;entryPerimeter=0;" edge="1" parent="1">
          <mxGeometry width="50" height="50" relative="1" as="geometry">
            <mxPoint x="390" y="1049.86" as="sourcePoint" />
            <mxPoint x="462" y="1049.86" as="targetPoint" />
          </mxGeometry>
        </mxCell>
        <mxCell id="jnu6qfAyHBBNwqPHd9JJ-48" style="edgeStyle=orthogonalEdgeStyle;rounded=0;orthogonalLoop=1;jettySize=auto;html=1;exitX=0.5;exitY=0;exitDx=0;exitDy=0;exitPerimeter=0;entryX=1.005;entryY=0.193;entryDx=0;entryDy=0;entryPerimeter=0;endArrow=none;endFill=0;" edge="1" parent="1" source="jnu6qfAyHBBNwqPHd9JJ-47" target="jnu6qfAyHBBNwqPHd9JJ-40">
          <mxGeometry relative="1" as="geometry" />
        </mxCell>
        <mxCell id="jnu6qfAyHBBNwqPHd9JJ-47" value="5V" style="verticalLabelPosition=top;verticalAlign=bottom;shape=mxgraph.electrical.signal_sources.vdd;shadow=0;dashed=0;align=center;strokeWidth=1;fontSize=24;html=1;flipV=1;" vertex="1" parent="1">
          <mxGeometry x="650" y="900" width="60" height="40" as="geometry" />
        </mxCell>
        <mxCell id="jnu6qfAyHBBNwqPHd9JJ-50" style="edgeStyle=orthogonalEdgeStyle;rounded=0;orthogonalLoop=1;jettySize=auto;html=1;exitX=0.5;exitY=0;exitDx=0;exitDy=0;exitPerimeter=0;entryX=1.006;entryY=0.805;entryDx=0;entryDy=0;entryPerimeter=0;endArrow=none;endFill=0;" edge="1" parent="1" source="jnu6qfAyHBBNwqPHd9JJ-49" target="jnu6qfAyHBBNwqPHd9JJ-40">
          <mxGeometry relative="1" as="geometry" />
        </mxCell>
        <mxCell id="jnu6qfAyHBBNwqPHd9JJ-49" value="" style="pointerEvents=1;verticalLabelPosition=bottom;shadow=0;dashed=0;align=center;html=1;verticalAlign=top;shape=mxgraph.electrical.signal_sources.protective_earth;" vertex="1" parent="1">
          <mxGeometry x="667.5" y="1060" width="25" height="20" as="geometry" />
        </mxCell>
        <mxCell id="jnu6qfAyHBBNwqPHd9JJ-51" value="Electrovalve" style="rounded=0;whiteSpace=wrap;html=1;" vertex="1" parent="1">
          <mxGeometry x="10" y="1163.7" width="160" height="130" as="geometry" />
        </mxCell>
        <mxCell id="jnu6qfAyHBBNwqPHd9JJ-87" style="edgeStyle=orthogonalEdgeStyle;rounded=0;orthogonalLoop=1;jettySize=auto;html=1;exitX=0.5;exitY=0;exitDx=0;exitDy=0;exitPerimeter=0;entryX=0.687;entryY=1.001;entryDx=0;entryDy=0;entryPerimeter=0;endArrow=none;endFill=0;" edge="1" parent="1" source="jnu6qfAyHBBNwqPHd9JJ-53" target="jnu6qfAyHBBNwqPHd9JJ-75">
          <mxGeometry relative="1" as="geometry">
            <mxPoint x="407" y="1173.7" as="targetPoint" />
            <Array as="points">
              <mxPoint x="427" y="1178.7" />
            </Array>
          </mxGeometry>
        </mxCell>
        <mxCell id="jnu6qfAyHBBNwqPHd9JJ-53" value="12V" style="verticalLabelPosition=top;verticalAlign=bottom;shape=mxgraph.electrical.signal_sources.vdd;shadow=0;dashed=0;align=center;strokeWidth=1;fontSize=24;html=1;flipV=1;" vertex="1" parent="1">
          <mxGeometry x="397" y="1123.7" width="60" height="40" as="geometry" />
        </mxCell>
        <mxCell id="jnu6qfAyHBBNwqPHd9JJ-54" style="edgeStyle=orthogonalEdgeStyle;rounded=0;orthogonalLoop=1;jettySize=auto;html=1;exitDx=0;exitDy=0;exitPerimeter=0;entryX=1.002;entryY=0.886;entryDx=0;entryDy=0;entryPerimeter=0;endArrow=none;endFill=0;" edge="1" parent="1">
          <mxGeometry relative="1" as="geometry">
            <mxPoint x="170" y="1273.7" as="targetPoint" />
            <Array as="points">
              <mxPoint x="170" y="1273.7" />
            </Array>
            <mxPoint x="239" y="1273.7" as="sourcePoint" />
          </mxGeometry>
        </mxCell>
        <mxCell id="jnu6qfAyHBBNwqPHd9JJ-55" value="" style="pointerEvents=1;verticalLabelPosition=bottom;shadow=0;dashed=0;align=center;html=1;verticalAlign=top;shape=mxgraph.electrical.signal_sources.protective_earth;" vertex="1" parent="1">
          <mxGeometry x="226.5" y="1293.7" width="25" height="20" as="geometry" />
        </mxCell>
        <mxCell id="jnu6qfAyHBBNwqPHd9JJ-57" value="" style="edgeStyle=orthogonalEdgeStyle;rounded=0;orthogonalLoop=1;jettySize=auto;html=1;exitX=0.5;exitY=0;exitDx=0;exitDy=0;exitPerimeter=0;entryDx=0;entryDy=0;entryPerimeter=0;endArrow=none;endFill=0;" edge="1" parent="1" source="jnu6qfAyHBBNwqPHd9JJ-55">
          <mxGeometry relative="1" as="geometry">
            <mxPoint x="239" y="1293.7" as="sourcePoint" />
            <mxPoint x="239" y="1273.7" as="targetPoint" />
            <Array as="points">
              <mxPoint x="239" y="1275.7" />
            </Array>
          </mxGeometry>
        </mxCell>
        <mxCell id="jnu6qfAyHBBNwqPHd9JJ-84" value="" style="group;rotation=-90;" vertex="1" connectable="0" parent="1">
          <mxGeometry x="274" y="1145.18" width="113.91" height="120" as="geometry" />
        </mxCell>
        <mxCell id="jnu6qfAyHBBNwqPHd9JJ-60" value="" style="verticalLabelPosition=bottom;shadow=0;dashed=0;align=center;html=1;verticalAlign=top;shape=mxgraph.electrical.transistors.npn_transistor_5;rotation=-90;" vertex="1" parent="jnu6qfAyHBBNwqPHd9JJ-84">
          <mxGeometry x="34" y="58" width="22" height="38.70967741935484" as="geometry" />
        </mxCell>
        <mxCell id="jnu6qfAyHBBNwqPHd9JJ-61" style="edgeStyle=orthogonalEdgeStyle;rounded=0;orthogonalLoop=1;jettySize=auto;html=1;exitX=1;exitY=0;exitDx=0;exitDy=0;exitPerimeter=0;endArrow=none;endFill=0;" edge="1" parent="jnu6qfAyHBBNwqPHd9JJ-84" source="jnu6qfAyHBBNwqPHd9JJ-64">
          <mxGeometry relative="1" as="geometry">
            <mxPoint x="18" y="31" as="targetPoint" />
          </mxGeometry>
        </mxCell>
        <mxCell id="jnu6qfAyHBBNwqPHd9JJ-62" style="edgeStyle=orthogonalEdgeStyle;rounded=0;orthogonalLoop=1;jettySize=auto;html=1;exitX=0;exitY=0.5;exitDx=0;exitDy=0;exitPerimeter=0;endArrow=none;endFill=0;" edge="1" parent="jnu6qfAyHBBNwqPHd9JJ-84" source="jnu6qfAyHBBNwqPHd9JJ-64">
          <mxGeometry relative="1" as="geometry">
            <mxPoint x="69" y="67" as="targetPoint" />
          </mxGeometry>
        </mxCell>
        <mxCell id="jnu6qfAyHBBNwqPHd9JJ-64" value="" style="verticalLabelPosition=bottom;shadow=0;dashed=0;align=center;html=1;verticalAlign=top;shape=mxgraph.electrical.transistors.npn_transistor_5;rotation=-90;" vertex="1" parent="jnu6qfAyHBBNwqPHd9JJ-84">
          <mxGeometry x="58" y="23" width="22" height="38.70967741935484" as="geometry" />
        </mxCell>
        <mxCell id="jnu6qfAyHBBNwqPHd9JJ-65" style="edgeStyle=orthogonalEdgeStyle;rounded=0;orthogonalLoop=1;jettySize=auto;html=1;exitDx=0;exitDy=0;exitPerimeter=0;entryX=1;entryY=0;entryDx=0;entryDy=0;entryPerimeter=0;endArrow=none;endFill=0;" edge="1" parent="jnu6qfAyHBBNwqPHd9JJ-84" source="jnu6qfAyHBBNwqPHd9JJ-76" target="jnu6qfAyHBBNwqPHd9JJ-60">
          <mxGeometry relative="1" as="geometry">
            <Array as="points">
              <mxPoint x="20" y="33" />
              <mxPoint x="20" y="66" />
            </Array>
          </mxGeometry>
        </mxCell>
        <mxCell id="jnu6qfAyHBBNwqPHd9JJ-68" value="" style="pointerEvents=1;fillColor=strokeColor;verticalLabelPosition=bottom;shadow=0;dashed=0;align=center;html=1;verticalAlign=top;shape=mxgraph.electrical.diodes.diode;rotation=-180;" vertex="1" parent="jnu6qfAyHBBNwqPHd9JJ-84">
          <mxGeometry x="41" y="6" width="20.625" height="11.612903225806452" as="geometry" />
        </mxCell>
        <mxCell id="jnu6qfAyHBBNwqPHd9JJ-69" style="edgeStyle=orthogonalEdgeStyle;rounded=0;orthogonalLoop=1;jettySize=auto;html=1;exitDx=0;exitDy=0;exitPerimeter=0;endArrow=none;endFill=0;" edge="1" parent="jnu6qfAyHBBNwqPHd9JJ-84" source="jnu6qfAyHBBNwqPHd9JJ-74">
          <mxGeometry relative="1" as="geometry">
            <mxPoint x="92" y="67" as="targetPoint" />
          </mxGeometry>
        </mxCell>
        <mxCell id="jnu6qfAyHBBNwqPHd9JJ-70" style="edgeStyle=orthogonalEdgeStyle;rounded=0;orthogonalLoop=1;jettySize=auto;html=1;exitDx=0;exitDy=0;exitPerimeter=0;entryX=0;entryY=0.5;entryDx=0;entryDy=0;entryPerimeter=0;endArrow=none;endFill=0;" edge="1" parent="jnu6qfAyHBBNwqPHd9JJ-84" source="jnu6qfAyHBBNwqPHd9JJ-78" target="jnu6qfAyHBBNwqPHd9JJ-60">
          <mxGeometry relative="1" as="geometry">
            <Array as="points" />
          </mxGeometry>
        </mxCell>
        <mxCell id="jnu6qfAyHBBNwqPHd9JJ-86" style="edgeStyle=orthogonalEdgeStyle;rounded=0;orthogonalLoop=1;jettySize=auto;html=1;exitX=0;exitY=0.5;exitDx=0;exitDy=0;exitPerimeter=0;endArrow=none;endFill=0;" edge="1" parent="jnu6qfAyHBBNwqPHd9JJ-84" source="jnu6qfAyHBBNwqPHd9JJ-71" target="jnu6qfAyHBBNwqPHd9JJ-78">
          <mxGeometry relative="1" as="geometry">
            <Array as="points">
              <mxPoint x="92" y="100" />
            </Array>
          </mxGeometry>
        </mxCell>
        <mxCell id="jnu6qfAyHBBNwqPHd9JJ-71" value="10k&lt;b&gt;Ω&lt;/b&gt;" style="verticalLabelPosition=bottom;shadow=0;dashed=0;align=center;html=1;verticalAlign=top;strokeWidth=1;shape=mxgraph.electrical.resistors.resistor_2;rounded=1;comic=0;labelBackgroundColor=none;fontFamily=Verdana;fontSize=12;rotation=-90;" vertex="1" parent="jnu6qfAyHBBNwqPHd9JJ-84">
          <mxGeometry x="82" y="77" width="19.9375" height="7.741935483870968" as="geometry" />
        </mxCell>
        <mxCell id="jnu6qfAyHBBNwqPHd9JJ-72" value="150&lt;b&gt;Ω&lt;/b&gt;" style="verticalLabelPosition=bottom;shadow=0;dashed=0;align=center;html=1;verticalAlign=top;strokeWidth=1;shape=mxgraph.electrical.resistors.resistor_2;rounded=1;comic=0;labelBackgroundColor=none;fontFamily=Verdana;fontSize=12;rotation=-90;" vertex="1" parent="jnu6qfAyHBBNwqPHd9JJ-84">
          <mxGeometry x="82" y="45" width="19.9375" height="7.741935483870968" as="geometry" />
        </mxCell>
        <mxCell id="jnu6qfAyHBBNwqPHd9JJ-59" style="edgeStyle=orthogonalEdgeStyle;rounded=0;orthogonalLoop=1;jettySize=auto;html=1;exitX=1;exitY=1;exitDx=0;exitDy=0;exitPerimeter=0;entryX=0;entryY=0.5;entryDx=0;entryDy=0;entryPerimeter=0;endArrow=none;endFill=0;" edge="1" parent="jnu6qfAyHBBNwqPHd9JJ-84" source="jnu6qfAyHBBNwqPHd9JJ-60" target="jnu6qfAyHBBNwqPHd9JJ-72">
          <mxGeometry relative="1" as="geometry" />
        </mxCell>
        <mxCell id="jnu6qfAyHBBNwqPHd9JJ-73" value="" style="edgeStyle=orthogonalEdgeStyle;rounded=0;orthogonalLoop=1;jettySize=auto;html=1;exitX=1;exitY=0.5;exitDx=0;exitDy=0;exitPerimeter=0;endArrow=none;endFill=0;" edge="1" parent="jnu6qfAyHBBNwqPHd9JJ-84" source="jnu6qfAyHBBNwqPHd9JJ-71" target="jnu6qfAyHBBNwqPHd9JJ-74">
          <mxGeometry relative="1" as="geometry">
            <mxPoint x="92" y="67" as="targetPoint" />
            <mxPoint x="92" y="71" as="sourcePoint" />
          </mxGeometry>
        </mxCell>
        <mxCell id="jnu6qfAyHBBNwqPHd9JJ-74" value="" style="shape=waypoint;sketch=0;fillStyle=solid;size=6;pointerEvents=1;points=[];fillColor=none;resizable=0;rotatable=0;perimeter=centerPerimeter;snapToPoint=1;verticalAlign=top;spacingBottom=0;spacingTop=-5;fontFamily=Verdana;fontSize=12;rotation=-90;" vertex="1" parent="jnu6qfAyHBBNwqPHd9JJ-84">
          <mxGeometry x="71.97" y="45" width="40" height="40" as="geometry" />
        </mxCell>
        <mxCell id="jnu6qfAyHBBNwqPHd9JJ-76" value="" style="shape=waypoint;sketch=0;fillStyle=solid;size=6;pointerEvents=1;points=[];fillColor=none;resizable=0;rotatable=0;perimeter=centerPerimeter;snapToPoint=1;verticalAlign=top;spacingBottom=0;spacingTop=-5;fontFamily=Verdana;fontSize=12;rotation=-90;" vertex="1" parent="jnu6qfAyHBBNwqPHd9JJ-84">
          <mxGeometry y="12.74" width="40" height="40" as="geometry" />
        </mxCell>
        <mxCell id="jnu6qfAyHBBNwqPHd9JJ-67" style="edgeStyle=orthogonalEdgeStyle;rounded=0;orthogonalLoop=1;jettySize=auto;html=1;exitX=1;exitY=0.5;exitDx=0;exitDy=0;exitPerimeter=0;endArrow=none;endFill=0;" edge="1" parent="jnu6qfAyHBBNwqPHd9JJ-84" source="jnu6qfAyHBBNwqPHd9JJ-68" target="jnu6qfAyHBBNwqPHd9JJ-76">
          <mxGeometry relative="1" as="geometry">
            <Array as="points">
              <mxPoint x="20" y="12" />
            </Array>
            <mxPoint x="18" y="30" as="targetPoint" />
          </mxGeometry>
        </mxCell>
        <mxCell id="jnu6qfAyHBBNwqPHd9JJ-77" value="" style="shape=waypoint;sketch=0;fillStyle=solid;size=6;pointerEvents=1;points=[];fillColor=none;resizable=0;rotatable=0;perimeter=centerPerimeter;snapToPoint=1;verticalAlign=top;spacingBottom=0;spacingTop=-5;fontFamily=Verdana;fontSize=12;rotation=-90;" vertex="1" parent="jnu6qfAyHBBNwqPHd9JJ-84">
          <mxGeometry x="49" y="45" width="40" height="40" as="geometry" />
        </mxCell>
        <mxCell id="jnu6qfAyHBBNwqPHd9JJ-79" value="" style="edgeStyle=orthogonalEdgeStyle;rounded=0;orthogonalLoop=1;jettySize=auto;html=1;exitX=1;exitY=1;exitDx=0;exitDy=0;exitPerimeter=0;entryDx=0;entryDy=0;entryPerimeter=0;endArrow=none;endFill=0;" edge="1" parent="jnu6qfAyHBBNwqPHd9JJ-84" source="jnu6qfAyHBBNwqPHd9JJ-64" target="jnu6qfAyHBBNwqPHd9JJ-80">
          <mxGeometry relative="1" as="geometry">
            <mxPoint x="88" y="31" as="sourcePoint" />
            <mxPoint x="92" y="39" as="targetPoint" />
            <Array as="points">
              <mxPoint x="92" y="31" />
            </Array>
          </mxGeometry>
        </mxCell>
        <mxCell id="jnu6qfAyHBBNwqPHd9JJ-80" value="" style="shape=waypoint;sketch=0;fillStyle=solid;size=6;pointerEvents=1;points=[];fillColor=none;resizable=0;rotatable=0;perimeter=centerPerimeter;snapToPoint=1;verticalAlign=top;spacingBottom=0;spacingTop=-5;fontFamily=Verdana;fontSize=12;rotation=-90;" vertex="1" parent="jnu6qfAyHBBNwqPHd9JJ-84">
          <mxGeometry x="71.97" y="12.74" width="40" height="40" as="geometry" />
        </mxCell>
        <mxCell id="jnu6qfAyHBBNwqPHd9JJ-66" style="edgeStyle=orthogonalEdgeStyle;rounded=0;orthogonalLoop=1;jettySize=auto;html=1;exitX=0;exitY=0.5;exitDx=0;exitDy=0;exitPerimeter=0;endArrow=none;endFill=0;" edge="1" parent="jnu6qfAyHBBNwqPHd9JJ-84" source="jnu6qfAyHBBNwqPHd9JJ-68" target="jnu6qfAyHBBNwqPHd9JJ-80">
          <mxGeometry relative="1" as="geometry">
            <Array as="points">
              <mxPoint x="92" y="12" />
            </Array>
          </mxGeometry>
        </mxCell>
        <mxCell id="jnu6qfAyHBBNwqPHd9JJ-63" style="edgeStyle=orthogonalEdgeStyle;rounded=0;orthogonalLoop=1;jettySize=auto;html=1;exitDx=0;exitDy=0;exitPerimeter=0;entryX=1;entryY=0.5;entryDx=0;entryDy=0;entryPerimeter=0;endArrow=none;endFill=0;" edge="1" parent="jnu6qfAyHBBNwqPHd9JJ-84" source="jnu6qfAyHBBNwqPHd9JJ-80" target="jnu6qfAyHBBNwqPHd9JJ-72">
          <mxGeometry relative="1" as="geometry">
            <Array as="points" />
          </mxGeometry>
        </mxCell>
        <mxCell id="jnu6qfAyHBBNwqPHd9JJ-82" value="" style="endArrow=none;html=1;rounded=0;entryX=0.517;entryY=0.567;entryDx=0;entryDy=0;entryPerimeter=0;" edge="1" parent="jnu6qfAyHBBNwqPHd9JJ-84">
          <mxGeometry width="50" height="50" relative="1" as="geometry">
            <mxPoint x="23" y="32.66" as="sourcePoint" />
            <mxPoint y="32.66" as="targetPoint" />
          </mxGeometry>
        </mxCell>
        <mxCell id="jnu6qfAyHBBNwqPHd9JJ-83" value="" style="endArrow=none;html=1;rounded=0;" edge="1" parent="jnu6qfAyHBBNwqPHd9JJ-84">
          <mxGeometry width="50" height="50" relative="1" as="geometry">
            <mxPoint x="45" y="98" as="sourcePoint" />
            <mxPoint x="45" y="115" as="targetPoint" />
          </mxGeometry>
        </mxCell>
        <mxCell id="jnu6qfAyHBBNwqPHd9JJ-78" value="" style="shape=waypoint;sketch=0;fillStyle=solid;size=6;pointerEvents=1;points=[];fillColor=none;resizable=0;rotatable=0;perimeter=centerPerimeter;snapToPoint=1;verticalAlign=top;spacingBottom=0;spacingTop=-5;fontFamily=Verdana;fontSize=12;rotation=-90;" vertex="1" parent="jnu6qfAyHBBNwqPHd9JJ-84">
          <mxGeometry x="25" y="80" width="40" height="40" as="geometry" />
        </mxCell>
        <mxCell id="jnu6qfAyHBBNwqPHd9JJ-75" value="" style="rounded=0;whiteSpace=wrap;html=1;dashed=1;fillColor=none;rotation=-90;" vertex="1" parent="jnu6qfAyHBBNwqPHd9JJ-84">
          <mxGeometry x="10.78" y="-1.48" width="103.13" height="107.58" as="geometry" />
        </mxCell>
        <mxCell id="jnu6qfAyHBBNwqPHd9JJ-81" value="" style="endArrow=none;html=1;rounded=0;" edge="1" parent="1">
          <mxGeometry width="50" height="50" relative="1" as="geometry">
            <mxPoint x="404" y="1178.18" as="sourcePoint" />
            <mxPoint x="364" y="1178.18" as="targetPoint" />
          </mxGeometry>
        </mxCell>
        <mxCell id="jnu6qfAyHBBNwqPHd9JJ-88" value="" style="endArrow=none;html=1;rounded=0;exitDx=0;exitDy=0;exitPerimeter=0;entryX=0.691;entryY=-0.005;entryDx=0;entryDy=0;entryPerimeter=0;" edge="1" parent="1" source="jnu6qfAyHBBNwqPHd9JJ-94" target="jnu6qfAyHBBNwqPHd9JJ-75">
          <mxGeometry width="50" height="50" relative="1" as="geometry">
            <mxPoint x="227" y="1193.7" as="sourcePoint" />
            <mxPoint x="277" y="1143.7" as="targetPoint" />
          </mxGeometry>
        </mxCell>
        <mxCell id="jnu6qfAyHBBNwqPHd9JJ-90" style="edgeStyle=orthogonalEdgeStyle;rounded=0;orthogonalLoop=1;jettySize=auto;html=1;exitDx=0;exitDy=0;exitPerimeter=0;endArrow=none;endFill=0;" edge="1" parent="1" source="jnu6qfAyHBBNwqPHd9JJ-92">
          <mxGeometry relative="1" as="geometry">
            <mxPoint x="239.1111111111111" y="1273.7" as="targetPoint" />
          </mxGeometry>
        </mxCell>
        <mxCell id="jnu6qfAyHBBNwqPHd9JJ-91" style="edgeStyle=orthogonalEdgeStyle;rounded=0;orthogonalLoop=1;jettySize=auto;html=1;exitX=1;exitY=0.5;exitDx=0;exitDy=0;exitPerimeter=0;endArrow=none;endFill=0;" edge="1" parent="1" source="jnu6qfAyHBBNwqPHd9JJ-89">
          <mxGeometry relative="1" as="geometry">
            <mxPoint x="239.1111111111111" y="1173.7" as="targetPoint" />
          </mxGeometry>
        </mxCell>
        <mxCell id="jnu6qfAyHBBNwqPHd9JJ-89" value="" style="pointerEvents=1;fillColor=strokeColor;verticalLabelPosition=bottom;shadow=0;dashed=0;align=center;html=1;verticalAlign=top;shape=mxgraph.electrical.diodes.diode;rotation=-90;" vertex="1" parent="1">
          <mxGeometry x="209" y="1203.7" width="60" height="30" as="geometry" />
        </mxCell>
        <mxCell id="jnu6qfAyHBBNwqPHd9JJ-93" value="" style="edgeStyle=orthogonalEdgeStyle;rounded=0;orthogonalLoop=1;jettySize=auto;html=1;exitX=0;exitY=0.5;exitDx=0;exitDy=0;exitPerimeter=0;endArrow=none;endFill=0;" edge="1" parent="1" source="jnu6qfAyHBBNwqPHd9JJ-89" target="jnu6qfAyHBBNwqPHd9JJ-92">
          <mxGeometry relative="1" as="geometry">
            <mxPoint x="239.1111111111111" y="1273.7" as="targetPoint" />
            <mxPoint x="239" y="1248.7" as="sourcePoint" />
          </mxGeometry>
        </mxCell>
        <mxCell id="jnu6qfAyHBBNwqPHd9JJ-92" value="" style="shape=waypoint;sketch=0;fillStyle=solid;size=6;pointerEvents=1;points=[];fillColor=none;resizable=0;rotatable=0;perimeter=centerPerimeter;snapToPoint=1;verticalAlign=top;spacingBottom=0;spacingTop=-5;fontFamily=Verdana;fontSize=12;" vertex="1" parent="1">
          <mxGeometry x="219" y="1253.7" width="40" height="40" as="geometry" />
        </mxCell>
        <mxCell id="jnu6qfAyHBBNwqPHd9JJ-95" value="" style="endArrow=none;html=1;rounded=0;exitX=1;exitY=0.108;exitDx=0;exitDy=0;exitPerimeter=0;entryDx=0;entryDy=0;entryPerimeter=0;" edge="1" parent="1" source="jnu6qfAyHBBNwqPHd9JJ-51" target="jnu6qfAyHBBNwqPHd9JJ-94">
          <mxGeometry width="50" height="50" relative="1" as="geometry">
            <mxPoint x="170" y="1177.7" as="sourcePoint" />
            <mxPoint x="282" y="1177.7" as="targetPoint" />
          </mxGeometry>
        </mxCell>
        <mxCell id="jnu6qfAyHBBNwqPHd9JJ-94" value="" style="shape=waypoint;sketch=0;fillStyle=solid;size=6;pointerEvents=1;points=[];fillColor=none;resizable=0;rotatable=0;perimeter=centerPerimeter;snapToPoint=1;verticalAlign=top;spacingBottom=0;spacingTop=-5;fontFamily=Verdana;fontSize=12;" vertex="1" parent="1">
          <mxGeometry x="219" y="1157.92" width="40" height="40" as="geometry" />
        </mxCell>
        <mxCell id="jnu6qfAyHBBNwqPHd9JJ-97" style="edgeStyle=orthogonalEdgeStyle;rounded=0;orthogonalLoop=1;jettySize=auto;html=1;exitX=1;exitY=0.5;exitDx=0;exitDy=0;exitPerimeter=0;endArrow=none;endFill=0;" edge="1" parent="1" source="jnu6qfAyHBBNwqPHd9JJ-96" target="jnu6qfAyHBBNwqPHd9JJ-78">
          <mxGeometry relative="1" as="geometry" />
        </mxCell>
        <mxCell id="jnu6qfAyHBBNwqPHd9JJ-96" value="1 k&lt;b&gt;Ω&lt;/b&gt;" style="verticalLabelPosition=bottom;shadow=0;dashed=0;align=center;html=1;verticalAlign=top;strokeWidth=1;shape=mxgraph.electrical.resistors.resistor_2;rounded=1;comic=0;labelBackgroundColor=none;fontFamily=Verdana;fontSize=12;rotation=-90;" vertex="1" parent="1">
          <mxGeometry x="289" y="1293.7" width="58" height="20" as="geometry" />
        </mxCell>
        <mxCell id="jnu6qfAyHBBNwqPHd9JJ-98" value="Flow Meter Sensor" style="rounded=0;whiteSpace=wrap;html=1;" vertex="1" parent="1">
          <mxGeometry x="24" y="1510" width="160" height="130" as="geometry" />
        </mxCell>
        <mxCell id="jnu6qfAyHBBNwqPHd9JJ-99" style="edgeStyle=orthogonalEdgeStyle;rounded=0;orthogonalLoop=1;jettySize=auto;html=1;exitX=0.5;exitY=0;exitDx=0;exitDy=0;exitPerimeter=0;entryX=1.001;entryY=0.154;entryDx=0;entryDy=0;entryPerimeter=0;endArrow=none;endFill=0;" edge="1" parent="1" source="jnu6qfAyHBBNwqPHd9JJ-100" target="jnu6qfAyHBBNwqPHd9JJ-98">
          <mxGeometry relative="1" as="geometry">
            <mxPoint x="195" y="1540" as="targetPoint" />
            <Array as="points">
              <mxPoint x="252" y="1530" />
            </Array>
          </mxGeometry>
        </mxCell>
        <mxCell id="jnu6qfAyHBBNwqPHd9JJ-100" value="5V" style="verticalLabelPosition=top;verticalAlign=bottom;shape=mxgraph.electrical.signal_sources.vdd;shadow=0;dashed=0;align=center;strokeWidth=1;fontSize=24;html=1;flipV=1;" vertex="1" parent="1">
          <mxGeometry x="222" y="1480" width="60" height="40" as="geometry" />
        </mxCell>
        <mxCell id="jnu6qfAyHBBNwqPHd9JJ-101" style="edgeStyle=orthogonalEdgeStyle;rounded=0;orthogonalLoop=1;jettySize=auto;html=1;exitX=0.5;exitY=0;exitDx=0;exitDy=0;exitPerimeter=0;entryX=1.007;entryY=0.846;entryDx=0;entryDy=0;entryPerimeter=0;endArrow=none;endFill=0;" edge="1" parent="1" source="jnu6qfAyHBBNwqPHd9JJ-102" target="jnu6qfAyHBBNwqPHd9JJ-98">
          <mxGeometry relative="1" as="geometry">
            <mxPoint x="195" y="1620" as="targetPoint" />
          </mxGeometry>
        </mxCell>
        <mxCell id="jnu6qfAyHBBNwqPHd9JJ-102" value="" style="pointerEvents=1;verticalLabelPosition=bottom;shadow=0;dashed=0;align=center;html=1;verticalAlign=top;shape=mxgraph.electrical.signal_sources.protective_earth;" vertex="1" parent="1">
          <mxGeometry x="239.5" y="1640" width="25" height="20" as="geometry" />
        </mxCell>
        <mxCell id="jnu6qfAyHBBNwqPHd9JJ-103" style="edgeStyle=orthogonalEdgeStyle;rounded=0;orthogonalLoop=1;jettySize=auto;html=1;entryX=0.998;entryY=0.462;entryDx=0;entryDy=0;entryPerimeter=0;endArrow=none;endFill=0;" edge="1" parent="1" target="jnu6qfAyHBBNwqPHd9JJ-98">
          <mxGeometry relative="1" as="geometry">
            <mxPoint x="197.5" y="1550" as="targetPoint" />
            <mxPoint x="262" y="1570" as="sourcePoint" />
          </mxGeometry>
        </mxCell>
        <mxCell id="jnu6qfAyHBBNwqPHd9JJ-104" value="D3" style="rounded=0;whiteSpace=wrap;html=1;" vertex="1" parent="1">
          <mxGeometry x="262" y="1550" width="40" height="40" as="geometry" />
        </mxCell>
        <mxCell id="jnu6qfAyHBBNwqPHd9JJ-105" value="D6" style="rounded=0;whiteSpace=wrap;html=1;" vertex="1" parent="1">
          <mxGeometry x="298" y="1333.7" width="40" height="40" as="geometry" />
        </mxCell>
        <mxCell id="jnu6qfAyHBBNwqPHd9JJ-108" style="edgeStyle=orthogonalEdgeStyle;rounded=0;orthogonalLoop=1;jettySize=auto;html=1;exitX=1;exitY=0.5;exitDx=0;exitDy=0;exitPerimeter=0;entryX=0.5;entryY=1;entryDx=0;entryDy=0;endArrow=none;endFill=0;" edge="1" parent="1" source="jnu6qfAyHBBNwqPHd9JJ-106" target="jnu6qfAyHBBNwqPHd9JJ-107">
          <mxGeometry relative="1" as="geometry" />
        </mxCell>
        <mxCell id="jnu6qfAyHBBNwqPHd9JJ-106" value="1 k&lt;b&gt;Ω&lt;/b&gt;" style="verticalLabelPosition=bottom;shadow=0;dashed=0;align=center;html=1;verticalAlign=top;strokeWidth=1;shape=mxgraph.electrical.resistors.resistor_2;rounded=1;comic=0;labelBackgroundColor=none;fontFamily=Verdana;fontSize=12;rotation=-90;" vertex="1" parent="1">
          <mxGeometry x="883" y="961.48" width="58" height="20" as="geometry" />
        </mxCell>
        <mxCell id="jnu6qfAyHBBNwqPHd9JJ-107" value="D2" style="rounded=0;whiteSpace=wrap;html=1;" vertex="1" parent="1">
          <mxGeometry x="892" y="880" width="40" height="40" as="geometry" />
        </mxCell>
        <mxCell id="jnu6qfAyHBBNwqPHd9JJ-109" value="NTC 10 kΩ" style="pointerEvents=1;verticalLabelPosition=bottom;shadow=0;dashed=0;align=center;html=1;verticalAlign=top;shape=mxgraph.electrical.resistors.variable_resistor_1;rotation=90;" vertex="1" parent="1">
          <mxGeometry x="862" y="1021.48" width="100" height="50" as="geometry" />
        </mxCell>
        <mxCell id="jnu6qfAyHBBNwqPHd9JJ-110" value="" style="shape=waypoint;sketch=0;fillStyle=solid;size=6;pointerEvents=1;points=[];fillColor=none;resizable=0;rotatable=0;perimeter=centerPerimeter;snapToPoint=1;verticalAlign=top;spacingBottom=0;spacingTop=-5;fontFamily=Verdana;fontSize=12;" vertex="1" parent="1">
          <mxGeometry x="892" y="981.48" width="40" height="40" as="geometry" />
        </mxCell>
        <mxCell id="jnu6qfAyHBBNwqPHd9JJ-112" style="edgeStyle=orthogonalEdgeStyle;rounded=0;orthogonalLoop=1;jettySize=auto;html=1;exitX=0.5;exitY=0;exitDx=0;exitDy=0;exitPerimeter=0;entryX=1;entryY=0.5;entryDx=0;entryDy=0;entryPerimeter=0;endArrow=none;endFill=0;" edge="1" parent="1" source="jnu6qfAyHBBNwqPHd9JJ-111" target="jnu6qfAyHBBNwqPHd9JJ-109">
          <mxGeometry relative="1" as="geometry" />
        </mxCell>
        <mxCell id="jnu6qfAyHBBNwqPHd9JJ-111" value="" style="pointerEvents=1;verticalLabelPosition=bottom;shadow=0;dashed=0;align=center;html=1;verticalAlign=top;shape=mxgraph.electrical.signal_sources.protective_earth;" vertex="1" parent="1">
          <mxGeometry x="899.5" y="1100" width="25" height="20" as="geometry" />
        </mxCell>
        <mxCell id="jnu6qfAyHBBNwqPHd9JJ-114" style="edgeStyle=orthogonalEdgeStyle;rounded=0;orthogonalLoop=1;jettySize=auto;html=1;exitX=1;exitY=0.5;exitDx=0;exitDy=0;entryX=0.432;entryY=0.514;entryDx=0;entryDy=0;entryPerimeter=0;endArrow=none;endFill=0;" edge="1" parent="1" source="jnu6qfAyHBBNwqPHd9JJ-113" target="jnu6qfAyHBBNwqPHd9JJ-110">
          <mxGeometry relative="1" as="geometry" />
        </mxCell>
        <mxCell id="jnu6qfAyHBBNwqPHd9JJ-113" value="Α0" style="rounded=0;whiteSpace=wrap;html=1;" vertex="1" parent="1">
          <mxGeometry x="803" y="981.48" width="40" height="40" as="geometry" />
        </mxCell>
        <mxCell id="jnu6qfAyHBBNwqPHd9JJ-115" style="edgeStyle=orthogonalEdgeStyle;rounded=0;orthogonalLoop=1;jettySize=auto;html=1;exitX=1;exitY=0.5;exitDx=0;exitDy=0;exitPerimeter=0;entryX=0.5;entryY=1;entryDx=0;entryDy=0;endArrow=none;endFill=0;" edge="1" parent="1" source="jnu6qfAyHBBNwqPHd9JJ-116" target="jnu6qfAyHBBNwqPHd9JJ-117">
          <mxGeometry relative="1" as="geometry" />
        </mxCell>
        <mxCell id="jnu6qfAyHBBNwqPHd9JJ-116" value="4.7 k&lt;b&gt;Ω&lt;/b&gt;" style="verticalLabelPosition=bottom;shadow=0;dashed=0;align=center;html=1;verticalAlign=top;strokeWidth=1;shape=mxgraph.electrical.resistors.resistor_2;rounded=1;comic=0;labelBackgroundColor=none;fontFamily=Verdana;fontSize=12;rotation=-90;" vertex="1" parent="1">
          <mxGeometry x="853" y="1511.48" width="58" height="20" as="geometry" />
        </mxCell>
        <mxCell id="jnu6qfAyHBBNwqPHd9JJ-117" value="D4" style="rounded=0;whiteSpace=wrap;html=1;" vertex="1" parent="1">
          <mxGeometry x="862" y="1430" width="40" height="40" as="geometry" />
        </mxCell>
        <mxCell id="jnu6qfAyHBBNwqPHd9JJ-118" value="Thermocouple" style="pointerEvents=1;verticalLabelPosition=bottom;shadow=0;dashed=0;align=center;html=1;verticalAlign=top;shape=mxgraph.electrical.resistors.variable_resistor_1;rotation=90;" vertex="1" parent="1">
          <mxGeometry x="832" y="1571.48" width="100" height="50" as="geometry" />
        </mxCell>
        <mxCell id="jnu6qfAyHBBNwqPHd9JJ-119" value="" style="shape=waypoint;sketch=0;fillStyle=solid;size=6;pointerEvents=1;points=[];fillColor=none;resizable=0;rotatable=0;perimeter=centerPerimeter;snapToPoint=1;verticalAlign=top;spacingBottom=0;spacingTop=-5;fontFamily=Verdana;fontSize=12;" vertex="1" parent="1">
          <mxGeometry x="862" y="1531.48" width="40" height="40" as="geometry" />
        </mxCell>
        <mxCell id="jnu6qfAyHBBNwqPHd9JJ-120" style="edgeStyle=orthogonalEdgeStyle;rounded=0;orthogonalLoop=1;jettySize=auto;html=1;exitX=0.5;exitY=0;exitDx=0;exitDy=0;exitPerimeter=0;entryX=1;entryY=0.5;entryDx=0;entryDy=0;entryPerimeter=0;endArrow=none;endFill=0;" edge="1" parent="1" source="jnu6qfAyHBBNwqPHd9JJ-121" target="jnu6qfAyHBBNwqPHd9JJ-118">
          <mxGeometry relative="1" as="geometry" />
        </mxCell>
        <mxCell id="jnu6qfAyHBBNwqPHd9JJ-121" value="" style="pointerEvents=1;verticalLabelPosition=bottom;shadow=0;dashed=0;align=center;html=1;verticalAlign=top;shape=mxgraph.electrical.signal_sources.protective_earth;" vertex="1" parent="1">
          <mxGeometry x="869.5" y="1650" width="25" height="20" as="geometry" />
        </mxCell>
        <mxCell id="jnu6qfAyHBBNwqPHd9JJ-122" style="edgeStyle=orthogonalEdgeStyle;rounded=0;orthogonalLoop=1;jettySize=auto;html=1;exitDx=0;exitDy=0;entryX=0.432;entryY=0.514;entryDx=0;entryDy=0;entryPerimeter=0;endArrow=none;endFill=0;" edge="1" parent="1" source="jnu6qfAyHBBNwqPHd9JJ-127" target="jnu6qfAyHBBNwqPHd9JJ-119">
          <mxGeometry relative="1" as="geometry" />
        </mxCell>
        <mxCell id="jnu6qfAyHBBNwqPHd9JJ-123" value="Α1" style="rounded=0;whiteSpace=wrap;html=1;" vertex="1" parent="1">
          <mxGeometry x="700" y="1531.48" width="40" height="40" as="geometry" />
        </mxCell>
        <mxCell id="jnu6qfAyHBBNwqPHd9JJ-124" value="10 uF" style="pointerEvents=1;verticalLabelPosition=bottom;shadow=0;dashed=0;align=center;html=1;verticalAlign=top;shape=mxgraph.electrical.capacitors.capacitor_3;rotation=90;" vertex="1" parent="1">
          <mxGeometry x="755.48" y="1578" width="78" height="29.44" as="geometry" />
        </mxCell>
        <mxCell id="jnu6qfAyHBBNwqPHd9JJ-126" style="edgeStyle=orthogonalEdgeStyle;rounded=0;orthogonalLoop=1;jettySize=auto;html=1;exitX=0.5;exitY=0;exitDx=0;exitDy=0;exitPerimeter=0;entryX=1;entryY=0.5;entryDx=0;entryDy=0;entryPerimeter=0;endArrow=none;endFill=0;" edge="1" parent="1" source="jnu6qfAyHBBNwqPHd9JJ-125" target="jnu6qfAyHBBNwqPHd9JJ-124">
          <mxGeometry relative="1" as="geometry" />
        </mxCell>
        <mxCell id="jnu6qfAyHBBNwqPHd9JJ-125" value="" style="pointerEvents=1;verticalLabelPosition=bottom;shadow=0;dashed=0;align=center;html=1;verticalAlign=top;shape=mxgraph.electrical.signal_sources.protective_earth;" vertex="1" parent="1">
          <mxGeometry x="781.98" y="1650" width="25" height="20" as="geometry" />
        </mxCell>
        <mxCell id="jnu6qfAyHBBNwqPHd9JJ-128" value="" style="edgeStyle=orthogonalEdgeStyle;rounded=0;orthogonalLoop=1;jettySize=auto;html=1;exitX=1;exitY=0.5;exitDx=0;exitDy=0;entryDx=0;entryDy=0;entryPerimeter=0;endArrow=none;endFill=0;" edge="1" parent="1" source="jnu6qfAyHBBNwqPHd9JJ-123" target="jnu6qfAyHBBNwqPHd9JJ-127">
          <mxGeometry relative="1" as="geometry">
            <mxPoint x="740" y="1551.52" as="sourcePoint" />
            <mxPoint x="882" y="1551.52" as="targetPoint" />
          </mxGeometry>
        </mxCell>
        <mxCell id="jnu6qfAyHBBNwqPHd9JJ-127" value="" style="shape=waypoint;sketch=0;fillStyle=solid;size=6;pointerEvents=1;points=[];fillColor=none;resizable=0;rotatable=0;perimeter=centerPerimeter;snapToPoint=1;verticalAlign=top;spacingBottom=0;spacingTop=-5;fontFamily=Verdana;fontSize=12;" vertex="1" parent="1">
          <mxGeometry x="774.48" y="1531.48" width="40" height="40" as="geometry" />
        </mxCell>
        <mxCell id="jnu6qfAyHBBNwqPHd9JJ-129" value="SD Card" style="rounded=0;whiteSpace=wrap;html=1;" vertex="1" parent="1">
          <mxGeometry x="502" y="1172.91" width="160" height="130" as="geometry" />
        </mxCell>
        <mxCell id="jnu6qfAyHBBNwqPHd9JJ-131" style="edgeStyle=orthogonalEdgeStyle;rounded=0;orthogonalLoop=1;jettySize=auto;html=1;exitX=0.5;exitY=0;exitDx=0;exitDy=0;exitPerimeter=0;endArrow=none;endFill=0;" edge="1" parent="1" source="jnu6qfAyHBBNwqPHd9JJ-132">
          <mxGeometry relative="1" as="geometry">
            <mxPoint x="662" y="1182.7" as="targetPoint" />
            <Array as="points">
              <mxPoint x="690" y="1182.91" />
            </Array>
          </mxGeometry>
        </mxCell>
        <mxCell id="jnu6qfAyHBBNwqPHd9JJ-132" value="5V" style="verticalLabelPosition=top;verticalAlign=bottom;shape=mxgraph.electrical.signal_sources.vdd;shadow=0;dashed=0;align=center;strokeWidth=1;fontSize=24;html=1;flipV=1;" vertex="1" parent="1">
          <mxGeometry x="660" y="1132.91" width="60" height="40" as="geometry" />
        </mxCell>
        <mxCell id="jnu6qfAyHBBNwqPHd9JJ-133" style="edgeStyle=orthogonalEdgeStyle;rounded=0;orthogonalLoop=1;jettySize=auto;html=1;exitX=0.5;exitY=0;exitDx=0;exitDy=0;exitPerimeter=0;endArrow=none;endFill=0;entryX=1;entryY=0.935;entryDx=0;entryDy=0;entryPerimeter=0;" edge="1" parent="1" source="jnu6qfAyHBBNwqPHd9JJ-134" target="jnu6qfAyHBBNwqPHd9JJ-129">
          <mxGeometry relative="1" as="geometry">
            <mxPoint x="632" y="1313.7" as="targetPoint" />
            <Array as="points">
              <mxPoint x="700" y="1293.7" />
              <mxPoint x="662" y="1293.7" />
            </Array>
          </mxGeometry>
        </mxCell>
        <mxCell id="jnu6qfAyHBBNwqPHd9JJ-134" value="" style="pointerEvents=1;verticalLabelPosition=bottom;shadow=0;dashed=0;align=center;html=1;verticalAlign=top;shape=mxgraph.electrical.signal_sources.protective_earth;" vertex="1" parent="1">
          <mxGeometry x="687" y="1313.7" width="25" height="20" as="geometry" />
        </mxCell>
        <mxCell id="jnu6qfAyHBBNwqPHd9JJ-137" value="CS" style="verticalLabelPosition=top;verticalAlign=middle;shape=mxgraph.electrical.signal_sources.vdd;shadow=0;dashed=0;align=center;strokeWidth=1;fontSize=24;html=1;flipV=1;direction=north;horizontal=1;spacingLeft=100;spacingBottom=0;spacingTop=65;" vertex="1" parent="1">
          <mxGeometry x="662" y="1183.7" width="40" height="31.48" as="geometry" />
        </mxCell>
        <mxCell id="jnu6qfAyHBBNwqPHd9JJ-142" style="edgeStyle=orthogonalEdgeStyle;rounded=0;orthogonalLoop=1;jettySize=auto;html=1;exitX=0.5;exitY=0;exitDx=0;exitDy=0;exitPerimeter=0;entryX=1;entryY=0.381;entryDx=0;entryDy=0;entryPerimeter=0;endArrow=none;endFill=0;" edge="1" parent="1" source="jnu6qfAyHBBNwqPHd9JJ-138" target="jnu6qfAyHBBNwqPHd9JJ-129">
          <mxGeometry relative="1" as="geometry" />
        </mxCell>
        <mxCell id="jnu6qfAyHBBNwqPHd9JJ-138" value="MOSI" style="verticalLabelPosition=top;verticalAlign=middle;shape=mxgraph.electrical.signal_sources.vdd;shadow=0;dashed=0;align=center;strokeWidth=1;fontSize=24;html=1;flipV=1;direction=north;horizontal=1;spacingLeft=100;spacingBottom=0;spacingTop=65;" vertex="1" parent="1">
          <mxGeometry x="672" y="1206.66" width="40" height="31.48" as="geometry" />
        </mxCell>
        <mxCell id="jnu6qfAyHBBNwqPHd9JJ-139" value="SCK" style="verticalLabelPosition=top;verticalAlign=middle;shape=mxgraph.electrical.signal_sources.vdd;shadow=0;dashed=0;align=center;strokeWidth=1;fontSize=24;html=1;flipV=1;direction=north;horizontal=1;spacingLeft=100;spacingBottom=0;spacingTop=65;" vertex="1" parent="1">
          <mxGeometry x="662" y="1232.7" width="40" height="31.48" as="geometry" />
        </mxCell>
        <mxCell id="jnu6qfAyHBBNwqPHd9JJ-141" style="edgeStyle=orthogonalEdgeStyle;rounded=0;orthogonalLoop=1;jettySize=auto;html=1;exitX=0.5;exitY=0;exitDx=0;exitDy=0;exitPerimeter=0;entryX=1;entryY=0.808;entryDx=0;entryDy=0;entryPerimeter=0;endArrow=none;endFill=0;" edge="1" parent="1" source="jnu6qfAyHBBNwqPHd9JJ-140" target="jnu6qfAyHBBNwqPHd9JJ-129">
          <mxGeometry relative="1" as="geometry" />
        </mxCell>
        <mxCell id="jnu6qfAyHBBNwqPHd9JJ-140" value="MISO" style="verticalLabelPosition=top;verticalAlign=middle;shape=mxgraph.electrical.signal_sources.vdd;shadow=0;dashed=0;align=center;strokeWidth=1;fontSize=24;html=1;flipV=1;direction=north;horizontal=1;spacingLeft=100;spacingBottom=0;spacingTop=65;" vertex="1" parent="1">
          <mxGeometry x="672" y="1262.22" width="40" height="31.48" as="geometry" />
        </mxCell>
        <mxCell id="jnu6qfAyHBBNwqPHd9JJ-143" value="ADS1115" style="rounded=0;whiteSpace=wrap;html=1;" vertex="1" parent="1">
          <mxGeometry x="781.98" y="1168.3000000000002" width="160" height="130" as="geometry" />
        </mxCell>
        <mxCell id="jnu6qfAyHBBNwqPHd9JJ-144" style="edgeStyle=orthogonalEdgeStyle;rounded=0;orthogonalLoop=1;jettySize=auto;html=1;exitX=0.5;exitY=0;exitDx=0;exitDy=0;exitPerimeter=0;endArrow=none;endFill=0;" edge="1" parent="1" source="jnu6qfAyHBBNwqPHd9JJ-145">
          <mxGeometry relative="1" as="geometry">
            <mxPoint x="941.98" y="1178.0900000000001" as="targetPoint" />
            <Array as="points">
              <mxPoint x="969.98" y="1178.3000000000002" />
            </Array>
          </mxGeometry>
        </mxCell>
        <mxCell id="jnu6qfAyHBBNwqPHd9JJ-145" value="3.3V" style="verticalLabelPosition=top;verticalAlign=bottom;shape=mxgraph.electrical.signal_sources.vdd;shadow=0;dashed=0;align=center;strokeWidth=1;fontSize=24;html=1;flipV=1;" vertex="1" parent="1">
          <mxGeometry x="939.98" y="1128.3000000000002" width="60" height="40" as="geometry" />
        </mxCell>
        <mxCell id="jnu6qfAyHBBNwqPHd9JJ-146" style="edgeStyle=orthogonalEdgeStyle;rounded=0;orthogonalLoop=1;jettySize=auto;html=1;exitX=0.5;exitY=0;exitDx=0;exitDy=0;exitPerimeter=0;endArrow=none;endFill=0;entryX=1;entryY=0.935;entryDx=0;entryDy=0;entryPerimeter=0;" edge="1" parent="1" source="jnu6qfAyHBBNwqPHd9JJ-147" target="jnu6qfAyHBBNwqPHd9JJ-143">
          <mxGeometry relative="1" as="geometry">
            <mxPoint x="911.98" y="1309.0900000000001" as="targetPoint" />
            <Array as="points">
              <mxPoint x="979.98" y="1289.0900000000001" />
              <mxPoint x="941.98" y="1289.0900000000001" />
            </Array>
          </mxGeometry>
        </mxCell>
        <mxCell id="jnu6qfAyHBBNwqPHd9JJ-147" value="" style="pointerEvents=1;verticalLabelPosition=bottom;shadow=0;dashed=0;align=center;html=1;verticalAlign=top;shape=mxgraph.electrical.signal_sources.protective_earth;" vertex="1" parent="1">
          <mxGeometry x="966.98" y="1309.0900000000001" width="25" height="20" as="geometry" />
        </mxCell>
        <mxCell id="jnu6qfAyHBBNwqPHd9JJ-148" value="SCL" style="verticalLabelPosition=top;verticalAlign=middle;shape=mxgraph.electrical.signal_sources.vdd;shadow=0;dashed=0;align=center;strokeWidth=1;fontSize=24;html=1;flipV=1;direction=north;horizontal=1;spacingLeft=100;spacingBottom=0;spacingTop=65;" vertex="1" parent="1">
          <mxGeometry x="941.98" y="1179.0900000000001" width="40" height="31.48" as="geometry" />
        </mxCell>
        <mxCell id="jnu6qfAyHBBNwqPHd9JJ-149" style="edgeStyle=orthogonalEdgeStyle;rounded=0;orthogonalLoop=1;jettySize=auto;html=1;exitX=0.5;exitY=0;exitDx=0;exitDy=0;exitPerimeter=0;entryX=1;entryY=0.381;entryDx=0;entryDy=0;entryPerimeter=0;endArrow=none;endFill=0;" edge="1" parent="1" source="jnu6qfAyHBBNwqPHd9JJ-150" target="jnu6qfAyHBBNwqPHd9JJ-143">
          <mxGeometry relative="1" as="geometry" />
        </mxCell>
        <mxCell id="jnu6qfAyHBBNwqPHd9JJ-150" value="SDA" style="verticalLabelPosition=top;verticalAlign=middle;shape=mxgraph.electrical.signal_sources.vdd;shadow=0;dashed=0;align=center;strokeWidth=1;fontSize=24;html=1;flipV=1;direction=north;horizontal=1;spacingLeft=100;spacingBottom=0;spacingTop=65;" vertex="1" parent="1">
          <mxGeometry x="951.98" y="1202.0500000000002" width="40" height="31.48" as="geometry" />
        </mxCell>
        <mxCell id="jnu6qfAyHBBNwqPHd9JJ-151" value="ADDR" style="verticalLabelPosition=top;verticalAlign=middle;shape=mxgraph.electrical.signal_sources.vdd;shadow=0;dashed=0;align=center;strokeWidth=1;fontSize=24;html=1;flipV=1;direction=north;horizontal=1;spacingLeft=110;spacingBottom=0;spacingTop=65;" vertex="1" parent="1">
          <mxGeometry x="941.98" y="1228.0900000000001" width="40" height="31.48" as="geometry" />
        </mxCell>
        <mxCell id="jnu6qfAyHBBNwqPHd9JJ-152" style="edgeStyle=orthogonalEdgeStyle;rounded=0;orthogonalLoop=1;jettySize=auto;html=1;exitX=0.5;exitY=0;exitDx=0;exitDy=0;exitPerimeter=0;entryX=1;entryY=0.808;entryDx=0;entryDy=0;entryPerimeter=0;endArrow=none;endFill=0;" edge="1" parent="1" source="jnu6qfAyHBBNwqPHd9JJ-153" target="jnu6qfAyHBBNwqPHd9JJ-143">
          <mxGeometry relative="1" as="geometry" />
        </mxCell>
        <mxCell id="jnu6qfAyHBBNwqPHd9JJ-153" value="A0" style="verticalLabelPosition=top;verticalAlign=middle;shape=mxgraph.electrical.signal_sources.vdd;shadow=0;dashed=0;align=center;strokeWidth=1;fontSize=24;html=1;flipV=1;direction=north;horizontal=1;spacingLeft=100;spacingBottom=0;spacingTop=65;" vertex="1" parent="1">
          <mxGeometry x="951.98" y="1257.6100000000001" width="40" height="31.48" as="geometry" />
        </mxCell>
      </root>
    </mxGraphModel>
  </diagram>
</mxfile>
